<mxfile host="app.diagrams.net" modified="2022-12-07T05:13:26.239Z" agent="5.0 (Macintosh; Intel Mac OS X 10_15_7) AppleWebKit/537.36 (KHTML, like Gecko) Chrome/108.0.0.0 Safari/537.36" version="20.6.0" etag="tLXONxOxKaeapjLtn6wi" type="github">
  <diagram id="OQTF4eHVUt0fzXQe-81y" name="Page-1">
    <mxGraphModel dx="1234" dy="794" grid="1" gridSize="10" guides="1" tooltips="1" connect="1" arrows="1" fold="1" page="1" pageScale="1" pageWidth="850" pageHeight="1100" math="0" shadow="0">
      <root>
        <mxCell id="0" />
        <mxCell id="1" parent="0" />
        <mxCell id="o6SURZNQEQxQLO-AO3zq-1" value="" style="rounded=0;whiteSpace=wrap;html=1;fillColor=none;strokeWidth=2;" vertex="1" parent="1">
          <mxGeometry x="30" y="150" width="790" height="470" as="geometry" />
        </mxCell>
        <mxCell id="o6SURZNQEQxQLO-AO3zq-2" value="" style="ellipse;whiteSpace=wrap;html=1;rotation=0;fillColor=none;strokeWidth=2;strokeColor=#6c8ebf;" vertex="1" parent="1">
          <mxGeometry x="67.61" y="171.88" width="590" height="370" as="geometry" />
        </mxCell>
        <mxCell id="o6SURZNQEQxQLO-AO3zq-3" value="" style="ellipse;whiteSpace=wrap;html=1;rotation=0;fillColor=none;strokeWidth=2;strokeColor=#82b366;" vertex="1" parent="1">
          <mxGeometry x="210" y="210" width="505.17" height="380" as="geometry" />
        </mxCell>
        <mxCell id="o6SURZNQEQxQLO-AO3zq-4" value="" style="ellipse;whiteSpace=wrap;html=1;rotation=0;fillColor=none;strokeWidth=2;strokeColor=#d79b00;" vertex="1" parent="1">
          <mxGeometry x="325" y="230" width="275.17" height="170" as="geometry" />
        </mxCell>
        <mxCell id="o6SURZNQEQxQLO-AO3zq-5" value="" style="ellipse;whiteSpace=wrap;html=1;rotation=0;fillColor=none;strokeWidth=2;strokeColor=#b85450;" vertex="1" parent="1">
          <mxGeometry x="252.61" y="400" width="220" height="130" as="geometry" />
        </mxCell>
        <mxCell id="o6SURZNQEQxQLO-AO3zq-6" value="&lt;font style=&quot;font-size: 18px;&quot;&gt;A&lt;/font&gt;" style="text;html=1;strokeColor=none;fillColor=none;align=center;verticalAlign=middle;whiteSpace=wrap;rounded=0;" vertex="1" parent="1">
          <mxGeometry x="50" y="172" width="60" height="30" as="geometry" />
        </mxCell>
        <mxCell id="o6SURZNQEQxQLO-AO3zq-7" value="&lt;font style=&quot;font-size: 18px;&quot;&gt;B&lt;/font&gt;" style="text;html=1;strokeColor=none;fillColor=none;align=center;verticalAlign=middle;whiteSpace=wrap;rounded=0;" vertex="1" parent="1">
          <mxGeometry x="365" y="260" width="60" height="30" as="geometry" />
        </mxCell>
        <mxCell id="o6SURZNQEQxQLO-AO3zq-8" value="&lt;font style=&quot;font-size: 18px;&quot;&gt;C&lt;/font&gt;" style="text;html=1;strokeColor=none;fillColor=none;align=center;verticalAlign=middle;whiteSpace=wrap;rounded=0;" vertex="1" parent="1">
          <mxGeometry x="265" y="440" width="60" height="30" as="geometry" />
        </mxCell>
        <mxCell id="o6SURZNQEQxQLO-AO3zq-10" value="&lt;font style=&quot;font-size: 18px;&quot;&gt;A：正在唱的房间&lt;br&gt;B：用户正在唱的歌房&lt;br&gt;C：用户正在唱的直播间&lt;br&gt;D：用户所在的房间&lt;br&gt;&lt;br&gt;E(B 并 C)：用户正在唱的房间&lt;br&gt;F(A 交 D)：用户所在的房间正在唱&lt;br&gt;E - F：用户正在听&lt;br&gt;&lt;/font&gt;" style="text;html=1;strokeColor=none;fillColor=none;align=left;verticalAlign=middle;whiteSpace=wrap;rounded=0;" vertex="1" parent="1">
          <mxGeometry x="30" y="640" width="320" height="210" as="geometry" />
        </mxCell>
        <mxCell id="o6SURZNQEQxQLO-AO3zq-11" value="&lt;font style=&quot;font-size: 18px;&quot;&gt;D&lt;/font&gt;" style="text;html=1;strokeColor=none;fillColor=none;align=center;verticalAlign=middle;whiteSpace=wrap;rounded=0;" vertex="1" parent="1">
          <mxGeometry x="550" y="520" width="60" height="30" as="geometry" />
        </mxCell>
        <mxCell id="o6SURZNQEQxQLO-AO3zq-12" value="&lt;font style=&quot;font-size: 18px;&quot;&gt;E&lt;/font&gt;" style="text;html=1;strokeColor=none;fillColor=none;align=center;verticalAlign=middle;whiteSpace=wrap;rounded=0;" vertex="1" parent="1">
          <mxGeometry x="240" y="260" width="60" height="30" as="geometry" />
        </mxCell>
        <mxCell id="o6SURZNQEQxQLO-AO3zq-13" value="&lt;font style=&quot;font-size: 18px;&quot;&gt;F&lt;/font&gt;" style="text;html=1;strokeColor=none;fillColor=none;align=center;verticalAlign=middle;whiteSpace=wrap;rounded=0;" vertex="1" parent="1">
          <mxGeometry x="240" y="341.88" width="60" height="30" as="geometry" />
        </mxCell>
      </root>
    </mxGraphModel>
  </diagram>
</mxfile>
